<svg width="27" height="24" viewBox="0 0 27 24" fill="none" xmlns="http://www.w3.org/2000/svg">
<path d="M11.4326 14.0004C12.1393 14.6723 13.1066 15.0509 14.1163 15.0509C15.1261 15.0509 16.0934 14.6723 16.8001 14.0004L21.094 10.0004C22.5762 8.61967 22.5762 6.38109 21.094 5.00038C19.6119 3.61967 17.2088 3.61967 15.7266 5.00038L15.1898 5.50038" stroke="#3366BB" stroke-opacity="0.8" stroke-width="1.75" stroke-linecap="round" stroke-linejoin="round"/>
<path d="M15.7262 9.99973C15.0195 9.32784 14.0522 8.94922 13.0425 8.94922C12.0327 8.94922 11.0654 9.32784 10.3587 9.99973L6.06476 13.9997C4.58258 15.3804 4.58258 17.619 6.06476 18.9997C7.54694 20.3804 9.95003 20.3804 11.4322 18.9997L11.969 18.4997" stroke="#3366BB" stroke-opacity="0.8" stroke-width="1.75" stroke-linecap="round" stroke-linejoin="round"/>
</svg>
